<?xml version="1.0" encoding="UTF-8" standalone="no"?>
<svg id="Layer_1" data-name="Layer 1" xmlns="http://www.w3.org/2000/svg" viewBox="0 0 128 128">
  <defs>
    <!-- <style>.cls-1{fill:#2e79bd;}.cls-2{fill:#2d3e50;}</style> -->
    <style>.cls-1{fill:#FFFFFF;}.cls-2{fill:#FFFFFF;}</style>
  </defs>
  <title>n</title>
  <path class="cls-1" d="M121.42848,78.51934a14.43863,14.43863,0,0,0-20.42168,0l-3.2781,3.2781-3.2781-3.2781A14.44072,14.44072,0,0,0,69.799,88.73019c0,4.66533,2.46839,8.78663,5.15855,12.42049a118.5565,118.5565,0,0,0,9.594,11.42367,80.75628,80.75628,0,0,0,11.255,9.93362,2.68608,2.68608,0,0,0,3.84408,0,80.75628,80.75628,0,0,0,11.255-9.93362,118.55649,118.55649,0,0,0,9.594-11.42367c2.69016-3.63386,5.15855-7.75516,5.15855-12.42049A14.39669,14.39669,0,0,0,121.42848,78.51934Z"/>
  <path class="cls-1" d="M75.3791,32.69343H29.283a3.07687,3.07687,0,0,0,0,6.15375H75.3791a3.07687,3.07687,0,1,0,0-6.15375Z"/>
  <path class="cls-1" d="M75.3791,54.36434H29.283a3.07687,3.07687,0,0,0,0,6.15375H75.3791a3.07687,3.07687,0,0,0,0-6.15375Z"/>
  <path class="cls-1" d="M52.047,76.03582H29.283a3.07687,3.07687,0,0,0,0,6.15375H52.047a3.07687,3.07687,0,1,0,0-6.15375Z"/>
  <path class="cls-2" d="M97.72826,4.68206H6.93248A4.59167,4.59167,0,0,0,2.34165,9.27289V118.72711a4.59166,4.59166,0,0,0,4.59083,4.59083H88.99037a91.94892,91.94892,0,0,1-7.91371-7.41965q-.82964-.869-1.64834-1.762h-67.905V13.86372H93.13743V71.6492a19.26017,19.26017,0,0,1,4.59083,3.34695,19.30394,19.30394,0,0,1,4.59083-3.34695V9.27289A4.59027,4.59027,0,0,0,97.72826,4.68206Z"/>
</svg>